<svg width="24" height="24" viewBox="0 0 24 24" fill="none" xmlns="http://www.w3.org/2000/svg">
<g clip-path="url(#clip0_1_3188)">
<g clip-path="url(#clip1_1_3188)">
<path d="M6.11988 7.33365H7.33335C8.06669 7.33365 8.66669 7.93365 8.66669 8.66698H14.6667C15.7734 8.66698 16.6667 9.56032 16.6667 10.667V13.3201H18.84C21.6133 13.4001 23.92 11.2134 24 8.42677C23.9867 5.94677 22.1467 3.85343 19.68 3.53343C18.8933 1.4001 16.8533 -0.0265685 14.5733 9.81536e-05C11.6933 -0.0532352 9.30667 2.21343 9.24 5.10677C8.30667 5.2401 7.49333 5.66677 6.86667 6.29343C6.79091 6.36919 6.72394 6.44494 6.64436 6.53496C6.6259 6.55585 6.60676 6.5775 6.58667 6.6001C6.4 6.82676 6.23988 7.06698 6.11988 7.33365C6.11992 7.33358 6.11984 7.33372 6.11988 7.33365Z" fill="url(#paint0_linear_1_3188)"/>
<path d="M7.99998 9.33337V23.2987C7.99998 23.68 8.32264 24.0027 8.70264 23.9694C12.792 23.6147 16 20.1827 16 16V10.6667C16 9.93071 15.4026 9.33337 14.6666 9.33337H7.99998Z" fill="url(#paint1_linear_1_3188)"/>
<path d="M7.33336 8.00009H1.33336C0.597356 8.00009 2.26498e-05 8.59742 2.26498e-05 9.33342V14.6668C2.26498e-05 19.0828 3.58402 22.6668 8.00002 22.6668V8.66676C8.00002 8.29876 7.70136 8.00009 7.33336 8.00009Z" fill="url(#paint2_linear_1_3188)"/>
<path d="M4.00145 12.6668C3.02812 12.6668 2.21745 13.3614 2.03878 14.2828C1.99878 14.4828 2.16545 14.6668 2.36811 14.6668H5.63345C5.83612 14.6668 6.00145 14.4828 5.96278 14.2828C5.78412 13.3628 4.97212 12.6668 4.00012 12.6668H4.00145Z" fill="#40601F"/>
<path d="M4.69336 17.7119C4.87736 19.0066 5.98936 19.9999 7.33336 19.9999H8.00002V17.3332H5.02536C4.82402 17.3332 4.66402 17.5119 4.69202 17.7119H4.69336Z" fill="#40601F"/>
<path d="M10.0375 14.2828C9.99747 14.4828 10.1641 14.6668 10.3668 14.6668H13.6335C13.8361 14.6668 14.0015 14.4828 13.9628 14.2828C13.7841 13.3614 12.9721 12.6668 12.0001 12.6668C11.0281 12.6668 10.2161 13.3628 10.0375 14.2828Z" fill="#962424"/>
<path d="M10.9747 19.9999C11.176 19.9999 11.336 19.8212 11.308 19.6212C11.124 18.3266 10.012 17.3332 8.66804 17.3332H8.00137V19.9999H10.976H10.9747Z" fill="#962424"/>
<path d="M7.99998 9.33337V23.2987C7.99998 23.68 8.32264 24.0027 8.70264 23.9694C12.792 23.6147 16 20.1827 16 16V10.6667C16 9.93071 15.4026 9.33337 14.6666 9.33337H7.99998Z" fill="url(#paint3_linear_1_3188)"/>
</g>
</g>
<defs>
<linearGradient id="paint0_linear_1_3188" x1="14.8267" y1="15.3534" x2="14.8267" y2="-2.87457" gradientUnits="userSpaceOnUse">
<stop stop-color="#0078D4"/>
<stop offset="0.16" stop-color="#1380DA"/>
<stop offset="0.53" stop-color="#3C91E5"/>
<stop offset="0.82" stop-color="#559CEC"/>
<stop offset="1" stop-color="#5EA0EF"/>
</linearGradient>
<linearGradient id="paint1_linear_1_3188" x1="12" y1="28.5" x2="12" y2="1.08271" gradientUnits="userSpaceOnUse">
<stop stop-color="#E62323"/>
<stop offset="1" stop-color="#FF7381"/>
</linearGradient>
<linearGradient id="paint2_linear_1_3188" x1="4.00002" y1="22.6654" x2="4.00002" y2="8.00009" gradientUnits="userSpaceOnUse">
<stop stop-color="#76BC2D"/>
<stop offset="0.817" stop-color="#86D633"/>
</linearGradient>
<linearGradient id="paint3_linear_1_3188" x1="10.012" y1="16.652" x2="7.75464" y2="16.652" gradientUnits="userSpaceOnUse">
<stop stop-color="#E62323" stop-opacity="0"/>
<stop offset="1" stop-opacity="0.2"/>
</linearGradient>
<clipPath id="clip0_1_3188">
<rect width="24" height="24" fill="white"/>
</clipPath>
<clipPath id="clip1_1_3188">
<rect width="24" height="24" fill="white" transform="matrix(-1 0 0 1 24 0)"/>
</clipPath>
</defs>
</svg>
