<svg width="24" height="24" viewBox="0 0 24 24" fill="none" xmlns="http://www.w3.org/2000/svg">
<path d="M13.0571 7.43107C14.0335 6.45476 15.6164 6.45476 16.5927 7.43107C17.569 8.40739 17.569 9.9903 16.5927 10.9666C15.6164 11.9429 14.0335 11.9429 13.0571 10.9666C12.0808 9.9903 12.0808 8.40739 13.0571 7.43107ZM15.532 8.49173C15.1415 8.10121 14.5083 8.10121 14.1178 8.49173C13.7273 8.88226 13.7273 9.51542 14.1178 9.90595C14.5083 10.2965 15.1415 10.2965 15.532 9.90595C15.9225 9.51542 15.9225 8.88226 15.532 8.49173ZM21.5085 4.32246C21.2398 3.45766 20.5625 2.78062 19.6976 2.5122L19.0355 2.30673C16.642 1.56391 14.0339 2.20833 12.2618 3.98044L11.2659 4.97632C9.89619 3.94768 7.94313 4.05652 6.69682 5.30283L5.45428 6.54536C5.16139 6.83826 5.16139 7.31313 5.45428 7.60602L7.04526 9.197L6.86545 9.37681C6.18203 10.0602 6.18203 11.1683 6.86545 11.8517L7.3608 12.347L5.96524 13.143C5.76209 13.2588 5.62462 13.4628 5.59349 13.6946C5.56235 13.9264 5.64111 14.1594 5.80648 14.3248L9.69559 18.2139C9.86083 18.3792 10.0937 18.4579 10.3253 18.427C10.5569 18.396 10.7609 18.2588 10.8769 18.056L11.6748 16.6611L12.172 17.1583C12.8554 17.8417 13.9635 17.8417 14.6469 17.1583L14.8237 16.9815L16.4133 18.5711C16.7062 18.864 17.181 18.864 17.4739 18.5711L18.7165 17.3285C19.9623 16.0827 20.0715 14.1307 19.0442 12.761L20.0421 11.763C21.8149 9.99024 22.4591 7.38093 21.715 4.98677L21.5085 4.32246ZM19.253 3.9448C19.6461 4.06681 19.954 4.37455 20.0761 4.76764L20.2826 5.43195C20.8613 7.29407 20.3603 9.32354 18.9814 10.7024L13.5862 16.0976C13.4886 16.1952 13.3303 16.1952 13.2327 16.0976L7.92611 10.791C7.82848 10.6934 7.82848 10.5351 7.92611 10.4375L13.3225 5.0411C14.7008 3.66279 16.7293 3.16157 18.5909 3.73933L19.253 3.9448ZM17.9641 13.8411C18.4166 14.6068 18.3138 15.6099 17.6558 16.2679L16.9436 16.9801L15.8843 15.9208L17.9641 13.8411ZM7.75748 6.36349C8.41599 5.70498 9.42001 5.60257 10.186 6.05626L8.10592 8.13634L7.04527 7.07569L7.75748 6.36349ZM10.5756 15.5618L10.0622 16.4592L7.56206 13.9591L8.46044 13.4467L10.5756 15.5618ZM6.68984 18.3945C6.98273 18.1016 6.98273 17.6267 6.68984 17.3338C6.39694 17.041 5.92207 17.041 5.62918 17.3338L3.1543 19.8087C2.86141 20.1016 2.86141 20.5765 3.1543 20.8694C3.4472 21.1623 3.92207 21.1623 4.21496 20.8694L6.68984 18.3945ZM4.74526 15.3893C5.03815 15.6822 5.03815 16.1571 4.74526 16.45L3.6846 17.5106C3.3917 17.8035 2.91683 17.8035 2.62394 17.5106C2.33104 17.2177 2.33104 16.7429 2.62394 16.45L3.6846 15.3893C3.97749 15.0964 4.45236 15.0964 4.74526 15.3893ZM8.63235 20.3411C8.92525 20.0483 8.92525 19.5734 8.63236 19.2805C8.33947 18.9876 7.8646 18.9876 7.5717 19.2805L6.5131 20.339C6.2202 20.6319 6.2202 21.1068 6.51309 21.3997C6.80598 21.6926 7.28085 21.6926 7.57375 21.3997L8.63235 20.3411Z" fill="#1A1A1A"/>
</svg>
