<svg width="214" height="42" viewBox="0 0 214 42" fill="none" xmlns="http://www.w3.org/2000/svg">
<path d="M62.262 35L54.63 9.8H60.156L64.89 27.188L69.93 9.8H75.312L80.352 27.188L85.086 9.8H90.486L82.854 35H77.508L72.558 17.702L67.554 35H62.262ZM95.6078 35V9.8H105.598C107.422 9.8 109.012 10.106 110.368 10.718C111.736 11.318 112.786 12.188 113.518 13.328C114.262 14.468 114.634 15.83 114.634 17.414C114.634 18.662 114.388 19.76 113.896 20.708C113.404 21.644 112.726 22.424 111.862 23.048C111.01 23.672 110.026 24.122 108.91 24.398L115.966 35H109.612L103.546 25.424H100.936V35H95.6078ZM100.936 21.122H104.896C106.264 21.122 107.332 20.846 108.1 20.294C108.88 19.73 109.27 18.878 109.27 17.738C109.27 16.562 108.91 15.68 108.19 15.092C107.482 14.504 106.444 14.21 105.076 14.21H100.936V21.122ZM132.973 35.54C131.053 35.54 129.277 35.21 127.645 34.55C126.013 33.878 124.597 32.948 123.397 31.76C122.197 30.572 121.261 29.18 120.589 27.584C119.929 25.988 119.599 24.26 119.599 22.4C119.599 20.528 119.929 18.794 120.589 17.198C121.261 15.602 122.197 14.21 123.397 13.022C124.597 11.834 126.013 10.91 127.645 10.25C129.277 9.59 131.053 9.26 132.973 9.26C134.893 9.26 136.663 9.596 138.283 10.268C139.915 10.94 141.331 11.876 142.531 13.076C143.743 14.276 144.685 15.674 145.357 17.27C146.029 18.854 146.365 20.564 146.365 22.4C146.365 24.26 146.029 25.988 145.357 27.584C144.685 29.18 143.743 30.572 142.531 31.76C141.331 32.948 139.915 33.878 138.283 34.55C136.663 35.21 134.893 35.54 132.973 35.54ZM132.973 30.536C134.089 30.536 135.121 30.344 136.069 29.96C137.017 29.576 137.845 29.03 138.553 28.322C139.261 27.602 139.807 26.744 140.191 25.748C140.587 24.752 140.785 23.636 140.785 22.4C140.785 20.756 140.443 19.328 139.759 18.116C139.075 16.892 138.145 15.944 136.969 15.272C135.793 14.6 134.461 14.264 132.973 14.264C131.869 14.264 130.837 14.456 129.877 14.84C128.929 15.224 128.101 15.77 127.393 16.478C126.697 17.186 126.151 18.044 125.755 19.052C125.371 20.048 125.179 21.164 125.179 22.4C125.179 24.044 125.521 25.478 126.205 26.702C126.889 27.914 127.819 28.856 128.995 29.528C130.171 30.2 131.497 30.536 132.973 30.536ZM164.542 35.54C162.622 35.54 160.846 35.21 159.214 34.55C157.582 33.878 156.166 32.948 154.966 31.76C153.766 30.572 152.83 29.18 152.158 27.584C151.498 25.988 151.168 24.26 151.168 22.4C151.168 20.528 151.498 18.794 152.158 17.198C152.83 15.602 153.766 14.21 154.966 13.022C156.166 11.834 157.582 10.91 159.214 10.25C160.846 9.59 162.622 9.26 164.542 9.26C166.462 9.26 168.232 9.596 169.852 10.268C171.484 10.94 172.9 11.876 174.1 13.076C175.312 14.276 176.254 15.674 176.926 17.27C177.598 18.854 177.934 20.564 177.934 22.4C177.934 24.26 177.598 25.988 176.926 27.584C176.254 29.18 175.312 30.572 174.1 31.76C172.9 32.948 171.484 33.878 169.852 34.55C168.232 35.21 166.462 35.54 164.542 35.54ZM164.542 30.536C165.658 30.536 166.69 30.344 167.638 29.96C168.586 29.576 169.414 29.03 170.122 28.322C170.83 27.602 171.376 26.744 171.76 25.748C172.156 24.752 172.354 23.636 172.354 22.4C172.354 20.756 172.012 19.328 171.328 18.116C170.644 16.892 169.714 15.944 168.538 15.272C167.362 14.6 166.03 14.264 164.542 14.264C163.438 14.264 162.406 14.456 161.446 14.84C160.498 15.224 159.67 15.77 158.962 16.478C158.266 17.186 157.72 18.044 157.324 19.052C156.94 20.048 156.748 21.164 156.748 22.4C156.748 24.044 157.09 25.478 157.774 26.702C158.458 27.914 159.388 28.856 160.564 29.528C161.74 30.2 163.066 30.536 164.542 30.536ZM183.951 35V9.8H189.081L198.891 25.964L196.785 26L206.145 9.8H211.239V35H206.073L206.163 16.676L207.117 17.018L199.413 30.032H195.777L187.839 17.018L188.739 16.676L188.829 35H183.951Z" fill="currentColor"/>
<path d="M33.911 4.47833L27.0659 0.662681C26.2775 0.223219 25.4052 0 24.5261 0V2.60887C24.9726 2.60887 25.4122 2.72048 25.796 2.93672L29.7802 5.16193L11.9315 15.1231C10.8569 15.723 10.194 16.853 10.194 18.0807V38.1006L6.04233 35.7848C5.21897 35.3244 4.70263 34.4524 4.70263 33.5037L4.73054 14.7882C4.73054 13.8465 5.24689 12.9746 6.07025 12.5142L23.2561 2.93672C23.6399 2.72048 24.0795 2.60887 24.5261 2.60887V0C23.6539 0 22.7747 0.223219 21.9862 0.662681L4.80729 10.2402C3.1536 11.154 2.13486 12.8979 2.12789 14.7813L2.09998 33.5037C2.09998 35.3941 3.11871 37.138 4.77241 38.0658L11.6384 41.9023C11.764 41.9721 11.8896 42 12.0152 42C12.4269 42 12.7967 41.6721 12.7967 41.2187V18.0807C12.7967 17.7947 12.9502 17.5366 13.1944 17.3971L33.897 5.84554C34.4343 5.54559 34.4343 4.77828 33.897 4.47833H33.911Z" fill="currentColor"/>
<path d="M39.508 17.2632L31.325 12.698C31.206 12.635 31.073 12.6 30.94 12.6C30.807 12.6 30.681 12.635 30.562 12.698L20.181 18.4955C18.529 19.4198 17.5 21.1702 17.5 23.0607V34.5366C17.5 34.8237 17.654 35.0828 17.899 35.2228L26.075 39.802C26.194 39.872 26.327 39.9 26.46 39.9C26.593 39.9 26.726 39.865 26.845 39.802L37.226 33.9905C38.878 33.0662 39.9 31.3158 39.9 29.4253V17.9424C39.9 17.6553 39.746 17.3962 39.501 17.2562L39.508 17.2632ZM26.236 23.6278C25.571 23.9989 25.165 24.6991 25.165 25.4553V36.2871L20.125 33.4654V22.9066C20.125 21.9474 20.65 21.0652 21.49 20.6101L30.933 15.4777L35.882 18.2434L26.229 23.6348L26.236 23.6278ZM29.638 24.7201V26.7296L27.776 27.7729V25.7634L29.638 24.7201ZM37.296 29.4323C37.296 30.3776 36.785 31.2528 35.959 31.7149L27.783 36.2941V30.7697L31.192 28.8652C31.857 28.4941 32.263 27.7939 32.263 27.0377V23.2637L37.303 20.449V29.4323H37.296Z" fill="currentColor"/>
</svg>
